<?xml version="1.0" encoding="UTF-8"?>
<svg xmlns="http://www.w3.org/2000/svg" version="1.1" width="512px" height="512px" style="shape-rendering:geometricPrecision; text-rendering:geometricPrecision; image-rendering:optimizeQuality; fill-rule:evenodd; clip-rule:evenodd" xmlns:xlink="http://www.w3.org/1999/xlink">
<g><path style="opacity:1" fill="#572e94" d="M 492.5,158.5 C 499.899,175.041 504.899,192.375 507.5,210.5C 507.66,212.199 507.494,213.866 507,215.5C 479.081,189.93 447.581,184.596 412.5,199.5C 375.762,149.76 329.428,138.26 273.5,165C 266.331,169.355 259.331,173.855 252.5,178.5C 276.034,154.049 303.701,135.549 335.5,123C 393.748,109.28 446.081,121.113 492.5,158.5 Z"/></g>
<g><path style="opacity:1" fill="#5155aa" d="M 412.5,199.5 C 412.5,199.833 412.5,200.167 412.5,200.5C 402.845,203.825 393.511,207.992 384.5,213C 360.404,227.103 337.404,242.769 315.5,260C 296.959,275.379 278.293,290.546 259.5,305.5C 259.167,305.5 258.833,305.5 258.5,305.5C 246.562,295.567 234.895,285.234 223.5,274.5C 222.89,273.609 222.557,272.609 222.5,271.5C 219.405,263.632 216.571,255.632 214,247.5C 211.916,241.661 209.083,236.327 205.5,231.5C 205.5,230.833 205.5,230.167 205.5,229.5C 220.478,211.889 236.144,194.889 252.5,178.5C 259.331,173.855 266.331,169.355 273.5,165C 329.428,138.26 375.762,149.76 412.5,199.5 Z"/></g>
<g><path style="opacity:1" fill="#69c0f0" d="M 127.5,169.5 C 141.155,175.644 152.655,184.644 162,196.5C 169.179,209.229 172.346,222.896 171.5,237.5C 155.241,230.026 138.241,224.859 120.5,222C 81.0878,217.787 51.9211,232.954 33,267.5C 26.1776,284.314 25.6776,301.314 31.5,318.5C 21.5361,315.436 12.7027,310.436 5,303.5C 4.53566,304.094 4.36899,304.761 4.5,305.5C 2.3686,296.578 0.701938,287.578 -0.5,278.5C -0.5,263.5 -0.5,248.5 -0.5,233.5C 1.06244,220.466 3.39578,207.466 6.5,194.5C 41.7788,161.84 82.1121,153.506 127.5,169.5 Z"/></g>
<g><path style="opacity:1" fill="#4f2f8b" d="M 507.5,210.5 C 509.078,218.129 510.412,225.795 511.5,233.5C 511.5,240.5 511.5,247.5 511.5,254.5C 505.726,250.438 499.726,246.605 493.5,243C 476.949,233.956 459.282,230.29 440.5,232C 436.708,232.876 433.041,234.042 429.5,235.5C 425.554,222.996 419.888,211.33 412.5,200.5C 412.5,200.167 412.5,199.833 412.5,199.5C 447.581,184.596 479.081,189.93 507,215.5C 507.494,213.866 507.66,212.199 507.5,210.5 Z"/></g>
<g><path style="opacity:1" fill="#3f68b4" d="M 205.5,231.5 C 209.083,236.327 211.916,241.661 214,247.5C 216.571,255.632 219.405,263.632 222.5,271.5C 221.883,271.611 221.383,271.944 221,272.5C 211.259,263.724 201.092,255.558 190.5,248C 194.694,241.646 199.694,236.146 205.5,231.5 Z"/></g>
<g><path style="opacity:1" fill="#5c55a9" d="M 511.5,254.5 C 511.5,262.167 511.5,269.833 511.5,277.5C 509.706,294.136 506.373,310.469 501.5,326.5C 500.153,329.366 498.153,331.866 495.5,334C 460.773,360.445 422.107,368.945 379.5,359.5C 389.963,353.551 399.129,345.884 407,336.5C 429.266,306.283 436.766,272.617 429.5,235.5C 433.041,234.042 436.708,232.876 440.5,232C 459.282,230.29 476.949,233.956 493.5,243C 499.726,246.605 505.726,250.438 511.5,254.5 Z"/></g>
<g><path style="opacity:1" fill="#1f9bdb" d="M 127.5,169.5 C 135.819,172.157 143.819,175.657 151.5,180C 172.524,193.191 190.524,209.691 205.5,229.5C 205.5,230.167 205.5,230.833 205.5,231.5C 199.694,236.146 194.694,241.646 190.5,248C 201.092,255.558 211.259,263.724 221,272.5C 221.383,271.944 221.883,271.611 222.5,271.5C 222.557,272.609 222.89,273.609 223.5,274.5C 227.914,290.101 234.247,304.768 242.5,318.5C 242.5,319.167 242.5,319.833 242.5,320.5C 225.622,333.531 208.289,346.031 190.5,358C 144.508,384.777 97.1747,387.444 48.5,366C 35.5539,359.215 23.8872,350.715 13.5,340.5C 9.09495,329.214 6.09495,317.547 4.5,305.5C 4.36899,304.761 4.53566,304.094 5,303.5C 12.7027,310.436 21.5361,315.436 31.5,318.5C 62.2214,327.232 91.5548,323.732 119.5,308C 145.325,292.189 168.158,272.689 188,249.5C 188.688,248.668 188.521,248.002 187.5,247.5C 181.766,244.642 176.433,241.309 171.5,237.5C 172.346,222.896 169.179,209.229 162,196.5C 152.655,184.644 141.155,175.644 127.5,169.5 Z"/></g>
<g><path style="opacity:1" fill="#3b6eb7" d="M 223.5,274.5 C 234.895,285.234 246.562,295.567 258.5,305.5C 253.771,310.561 248.438,314.894 242.5,318.5C 234.247,304.768 227.914,290.101 223.5,274.5 Z"/></g>
<g><path style="opacity:1" fill="#557bc4" d="M 258.5,305.5 C 258.833,305.5 259.167,305.5 259.5,305.5C 294.668,332.413 334.001,350.746 377.5,360.5C 364.051,367.821 349.551,371.488 334,371.5C 313.996,370.667 294.829,366.334 276.5,358.5C 262.651,347.99 251.318,335.323 242.5,320.5C 242.5,319.833 242.5,319.167 242.5,318.5C 248.438,314.894 253.771,310.561 258.5,305.5 Z"/></g>
<g><path style="opacity:1" fill="#595eaf" d="M 501.5,326.5 C 500.276,333.167 498.276,339.501 495.5,345.5C 467.809,372.842 434.476,388.676 395.5,393C 350.793,398.044 311.127,386.544 276.5,358.5C 294.829,366.334 313.996,370.667 334,371.5C 349.551,371.488 364.051,367.821 377.5,360.5C 378.167,360.167 378.833,359.833 379.5,359.5C 422.107,368.945 460.773,360.445 495.5,334C 498.153,331.866 500.153,329.366 501.5,326.5 Z"/></g>
</svg>
